<?xml version="1.0" standalone="no"?><!DOCTYPE svg PUBLIC "-//W3C//DTD SVG 1.1//EN" "http://www.w3.org/Graphics/SVG/1.1/DTD/svg11.dtd"><svg class="icon" width="200px" height="200.00px" viewBox="0 0 1024 1024" version="1.1" xmlns="http://www.w3.org/2000/svg"><path d="M803.651368 940.463158H223.043368V421.968842a29.345684 29.345684 0 0 1 31.043369-31.043368 29.345684 29.345684 0 0 1 30.935579 31.043368v456.407579h456.515368V421.968842a31.043368 31.043368 0 1 1 61.978948 0z" fill="#208BB5" /><path d="M254.113684 456.138105a44.139789 44.139789 0 0 1-18.620631-6.197894 30.531368 30.531368 0 0 1-9.32379-43.466106l117.975579-170.765473a31.447579 31.447579 0 0 1 52.789895 34.142315l-117.975579 170.765474a31.663158 31.663158 0 0 1-24.845474 15.521684zM772.634947 456.138105a38.319158 38.319158 0 0 1-24.845473-12.422737l-117.975579-170.765473a31.447579 31.447579 0 1 1 52.789894-34.142316l117.975579 170.765474a30.531368 30.531368 0 0 1-9.323789 43.466105c-6.197895-0.026947-12.422737 3.098947-18.620632 3.098947z" fill="#208BB5" /><path d="M688.774737 285.345684H325.524211V145.515789a62.275368 62.275368 0 0 1 61.978947-61.978947h239.077053a62.275368 62.275368 0 0 1 61.978947 61.978947z m-301.16379-61.978947h239.077053V145.515789H387.503158z" fill="#208BB5" /><path d="M617.364211 710.736842a29.345684 29.345684 0 0 1-31.043369-31.097263v-96.202105L539.755789 642.425263a32.336842 32.336842 0 0 1-49.664 0l-49.825684-65.185684v99.354947a29.345684 29.345684 0 0 1-31.043368 31.043369 29.345684 29.345684 0 0 1-31.043369-31.043369v-192.485052a29.830737 29.830737 0 0 1 21.746527-27.944421 33.145263 33.145263 0 0 1 34.142316 9.323789l80.842105 105.552842 77.608421-99.354947a29.399579 29.399579 0 0 1 34.142316-9.32379 29.830737 29.830737 0 0 1 21.746526 27.944421v186.287158a30.261895 30.261895 0 0 1-31.043368 34.142316z" fill="#83D2EA" /></svg>